<?xml version="1.0" encoding="UTF-8" standalone="no"?>
<svg
   xmlns:dc="http://purl.org/dc/elements/1.1/"
   xmlns:cc="http://creativecommons.org/ns#"
   xmlns:rdf="http://www.w3.org/1999/02/22-rdf-syntax-ns#"
   xmlns:svg="http://www.w3.org/2000/svg"
   xmlns="http://www.w3.org/2000/svg"
   xmlns:sodipodi="http://sodipodi.sourceforge.net/DTD/sodipodi-0.dtd"
   xmlns:inkscape="http://www.inkscape.org/namespaces/inkscape"
   width="210mm"
   height="297mm"
   viewBox="0 0 210 297"
   version="1.1"
   id="svg8"
   inkscape:version="1.0.1 (3bc2e813f5, 2020-09-07)"
   sodipodi:docname="icon-ir.svg">
  <style
     id="style833"></style>
  <defs
     id="defs2" />
  <sodipodi:namedview
     id="base"
     pagecolor="#ffffff"
     bordercolor="#666666"
     borderopacity="1.0"
     inkscape:pageopacity="0.0"
     inkscape:pageshadow="2"
     inkscape:zoom="2.3155139"
     inkscape:cx="98.647501"
     inkscape:cy="673.30111"
     inkscape:document-units="mm"
     inkscape:current-layer="layer1"
     inkscape:document-rotation="0"
     showgrid="false"
     inkscape:window-width="1918"
     inkscape:window-height="1057"
     inkscape:window-x="0"
     inkscape:window-y="0"
     inkscape:window-maximized="1" />
  <metadata
     id="metadata5">
    <rdf:RDF>
      <cc:Work
         rdf:about="">
        <dc:format>image/svg+xml</dc:format>
        <dc:type
           rdf:resource="http://purl.org/dc/dcmitype/StillImage" />
        <dc:title></dc:title>
      </cc:Work>
    </rdf:RDF>
  </metadata>
  <g
     inkscape:label="Calque 1"
     inkscape:groupmode="layer"
     id="layer1">
    <g
       id="g929"
       transform="translate(-43.441782,-21.329273)">
      <g
         id="g913">
        <path
           style="fill:none;stroke:#2298bb;stroke-width:5.29167;stroke-linecap:round;stroke-linejoin:round;stroke-miterlimit:4;stroke-dasharray:none;stroke-opacity:1"
           d="m 59.152212,123.76876 c 20.974309,-9.16595 41.503028,-9.16596 61.586168,0"
           id="path907"
           sodipodi:nodetypes="cc" />
        <rect
           style="fill:#2298bb;fill-opacity:1;stroke:#2298bb;stroke-width:5.29167;stroke-linecap:round;stroke-linejoin:round;stroke-miterlimit:4;stroke-dasharray:none;stroke-opacity:1"
           id="rect835"
           width="95.625671"
           height="66.33857"
           x="42.132462"
           y="50.813515"
           ry="5.1128869" />
      </g>
      <g
         id="g919"
         transform="translate(-2.4973908,2.215571)">
        <path
           style="fill:none;stroke:#ffffff;stroke-width:5.29167;stroke-linecap:round;stroke-linejoin:round;stroke-miterlimit:4;stroke-dasharray:none;stroke-opacity:1"
           d="m 64.490206,103.87576 c 16.530476,-13.564962 34.674794,-16.727658 55.904964,0"
           id="path856"
           sodipodi:nodetypes="cc" />
        <g
           id="g883"
           transform="translate(1.9574295,-1.1600667)"
           style="fill:#ffffff;stroke:#ffffff">
          <circle
             style="fill:#ffffff;stroke:#ffffff;stroke-width:3.36389;stroke-linecap:round;stroke-linejoin:round"
             id="path837"
             cx="73.963432"
             cy="73.53875"
             r="7.0672002" />
          <circle
             style="fill:#ffffff;stroke:#ffffff;stroke-width:3.36389;stroke-linecap:round;stroke-linejoin:round"
             id="path837-6"
             cx="107.00708"
             cy="73.53875"
             r="7.0672002" />
        </g>
      </g>
    </g>
    <rect
       style="fill:#000000;stroke:none;stroke-width:1.24415;stroke-linecap:round;stroke-linejoin:round;stroke-miterlimit:4;stroke-dasharray:none"
       id="rect909"
       width="26.458334"
       height="23.283333"
       x="37.069286"
       y="145.87926"
       inkscape:export-xdpi="96"
       inkscape:export-ydpi="96" />
    <path
       id="path1061"
       style="color:#000000;font-style:normal;font-variant:normal;font-weight:normal;font-stretch:normal;font-size:medium;line-height:normal;font-family:sans-serif;font-variant-ligatures:normal;font-variant-position:normal;font-variant-caps:normal;font-variant-numeric:normal;font-variant-alternates:normal;font-variant-east-asian:normal;font-feature-settings:normal;font-variation-settings:normal;text-indent:0;text-align:start;text-decoration:none;text-decoration-line:none;text-decoration-style:solid;text-decoration-color:#000000;letter-spacing:normal;word-spacing:normal;text-transform:none;writing-mode:lr-tb;direction:ltr;text-orientation:mixed;dominant-baseline:auto;baseline-shift:baseline;text-anchor:start;white-space:normal;shape-padding:0;shape-margin:0;inline-size:0;clip-rule:nonzero;display:inline;overflow:visible;visibility:visible;opacity:1;isolation:auto;mix-blend-mode:normal;color-interpolation:sRGB;color-interpolation-filters:linearRGB;solid-color:#000000;solid-opacity:1;vector-effect:none;fill:#5599ff;fill-opacity:1;fill-rule:nonzero;stroke:none;stroke-width:1.20273;stroke-linecap:round;stroke-linejoin:round;stroke-miterlimit:4;stroke-dasharray:none;stroke-dashoffset:0;stroke-opacity:1;color-rendering:auto;image-rendering:auto;shape-rendering:auto;text-rendering:auto;enable-background:accumulate;stop-color:#000000;stop-opacity:1"
       d="m 40.599511,148.97358 c -0.643391,0 -1.161334,0.47973 -1.161334,1.19932 v 12.71276 c 0,0.63964 0.517943,1.19932 1.161334,1.19932 h 4.85463 c -0.796091,0.23986 -1.59334,0.47974 -2.390949,0.8795 -0.303904,0.0798 -0.442548,0.47974 -0.309759,0.79956 0.132742,0.23985 0.486787,0.39976 0.790932,0.23985 4.632316,-1.99885 9.078281,-1.99885 13.499288,0 0.301941,0.15991 0.658108,0 0.795738,-0.23985 0.137466,-0.31982 0.0044,-0.71961 -0.297135,-0.79956 -0.767969,-0.39976 -1.540745,-0.63964 -2.317511,-0.8795 H 59.9974 c 0.643392,0 1.161333,-0.55968 1.161333,-1.19932 V 150.1729 c 0,-0.71959 -0.517941,-1.19932 -1.161333,-1.19932 z m 6.217964,3.43803 c 1.093035,0 1.987304,0.87951 1.987304,1.99887 0,1.11936 -0.894269,1.99887 -1.987304,1.99887 -1.093034,0 -1.987302,-0.87951 -1.987302,-1.99887 4e-6,-1.11936 0.894272,-1.99887 1.987302,-1.99887 z m 7.233489,0 c 1.093032,0 1.987301,0.87951 1.987303,1.99887 0,1.11936 -0.894268,1.99887 -1.987303,1.99887 -1.093033,0 -1.986594,-0.87951 -1.98659,-1.99887 0,-1.11936 0.893557,-1.99887 1.98659,-1.99887 z m -3.751796,6.15652 c 2.139521,0.0798 4.385009,0.87949 6.720302,2.71845 0.260771,0.23987 0.305597,0.63962 0.10011,0.87949 -0.205427,0.23987 -0.583379,0.31983 -0.844106,0.0799 -2.331305,-1.83895 -4.413752,-2.55853 -6.351684,-2.47859 -1.937934,0.0799 -3.781367,0.95946 -5.593112,2.47859 -0.25663,0.23987 -0.635501,0.15993 -0.846059,-0.0799 -0.210706,-0.23987 -0.173361,-0.63962 0.08339,-0.87949 1.94304,-1.5991 4.037553,-2.55855 6.304563,-2.71845 0.141687,0 0.283951,0 0.426586,0 z"
       sodipodi:nodetypes="csssccccccccsssccssssssssssccccscccccc" />
    <g
       id="g1039"
       style="opacity:1" />
    <rect
       style="fill:#000000;stroke:none;stroke-width:1.24415;stroke-linecap:round;stroke-linejoin:round;stroke-miterlimit:4;stroke-dasharray:none"
       id="rect909-8"
       width="26.458334"
       height="23.283333"
       x="11.605698"
       y="172.4492"
       inkscape:export-xdpi="96"
       inkscape:export-ydpi="96" />
    <path
       id="path1061-8"
       style="color:#000000;font-style:normal;font-variant:normal;font-weight:normal;font-stretch:normal;font-size:medium;line-height:normal;font-family:sans-serif;font-variant-ligatures:normal;font-variant-position:normal;font-variant-caps:normal;font-variant-numeric:normal;font-variant-alternates:normal;font-variant-east-asian:normal;font-feature-settings:normal;font-variation-settings:normal;text-indent:0;text-align:start;text-decoration:none;text-decoration-line:none;text-decoration-style:solid;text-decoration-color:#000000;letter-spacing:normal;word-spacing:normal;text-transform:none;writing-mode:lr-tb;direction:ltr;text-orientation:mixed;dominant-baseline:auto;baseline-shift:baseline;text-anchor:start;white-space:normal;shape-padding:0;shape-margin:0;inline-size:0;clip-rule:nonzero;display:inline;overflow:visible;visibility:visible;opacity:1;isolation:auto;mix-blend-mode:normal;color-interpolation:sRGB;color-interpolation-filters:linearRGB;solid-color:#000000;solid-opacity:1;vector-effect:none;fill:#5599ff;fill-opacity:1;fill-rule:nonzero;stroke:none;stroke-width:0.334353;stroke-linecap:round;stroke-linejoin:round;stroke-miterlimit:4;stroke-dasharray:none;stroke-dashoffset:0;stroke-opacity:1;color-rendering:auto;image-rendering:auto;shape-rendering:auto;text-rendering:auto;enable-background:accumulate;stop-color:#000000;stop-opacity:1"
       d="m 22.050606,177.61026 c -0.179245,0 -0.323542,0.1394 -0.323542,0.33854 v 3.52479 c 0,0.17923 0.144297,0.32858 0.323542,0.32858 h 1.352478 c -0.221787,0.0996 -0.443897,0.1394 -0.666107,0.24893 -0.08467,0 -0.123292,0.12944 -0.0863,0.21905 0.03698,0.0996 0.135617,0.10953 0.22035,0.0996 1.290543,-0.55759 2.529168,-0.55759 3.760841,0 0.08412,0 0.183346,0 0.221689,-0.0996 0.0383,-0.0996 0.0012,-0.19914 -0.08278,-0.21905 -0.213952,-0.10953 -0.429244,-0.17923 -0.645648,-0.24893 h 1.32964 c 0.179246,0 0.323542,-0.14935 0.323542,-0.32858 v -3.52479 c 0,-0.19914 -0.144296,-0.33854 -0.323542,-0.33854 z m 1.732297,0.95588 c 0.304515,0 0.553654,0.24892 0.553654,0.55759 0,0.30867 -0.249139,0.54764 -0.553654,0.54764 -0.304514,0 -0.553653,-0.23897 -0.553653,-0.54764 1e-6,-0.30867 0.24914,-0.55759 0.553653,-0.55759 z m 2.015217,0 c 0.304514,0 0.553653,0.24892 0.553654,0.55759 0,0.30867 -0.249139,0.54764 -0.553654,0.54764 -0.304514,0 -0.553456,-0.23897 -0.553455,-0.54764 0,-0.30867 0.248941,-0.55759 0.553455,-0.55759 z m -1.045233,1.71261 c 0.596061,0 1.221643,0.23896 1.872245,0.74677 0.07265,0.0996 0.08514,0.17923 0.02789,0.24893 -0.05723,0.0996 -0.162527,0.0996 -0.235164,0 -0.649491,-0.50781 -1.229652,-0.70695 -1.769551,-0.68704 -0.539899,0 -1.053471,0.26884 -1.558215,0.68704 -0.0715,0.0996 -0.177048,0 -0.235709,0 -0.0587,-0.0996 -0.0483,-0.17923 0.02323,-0.24893 0.541323,-0.43811 1.124844,-0.70695 1.756423,-0.74677 0.03947,0 0.07911,0 0.118845,0 z"
       sodipodi:nodetypes="csssccccccccsssccssssssssssccccscccccc"
       inkscape:export-xdpi="96"
       inkscape:export-ydpi="96" />
  </g>
</svg>
